<svg width="260" height="373" viewBox="0 0 260 373" fill="none" xmlns="http://www.w3.org/2000/svg">
  <g clip-path="url(#clip0_11_67)">
    <rect width="260" height="373" fill="#5A7D7C" />
    <path
      d="M21.1816 81.7475C20.8625 81.73 20.5623 81.591 20.3425 81.359C20.1227 81.1269 20.0002 80.8196 20 80.5L20 26.125V21.75H13.75H13.1665C13.0009 21.7523 12.8364 21.7217 12.6827 21.66C12.529 21.5982 12.3891 21.5065 12.2711 21.3902C12.1532 21.2739 12.0595 21.1353 11.9956 20.9825C11.9316 20.8297 11.8987 20.6656 11.8987 20.5C11.8987 20.3343 11.9316 20.1703 11.9956 20.0175C12.0595 19.8647 12.1532 19.7261 12.2711 19.6098C12.3891 19.4935 12.529 19.4018 12.6827 19.34C12.8364 19.2783 13.0009 19.2476 13.1665 19.25H13.75C15.733 19.25 17.5 17.3627 17.5 14.875C17.5 12.3873 15.733 10.5 13.75 10.5H11.25C10.9185 10.5 10.6006 10.3683 10.3662 10.1338C10.1317 9.89942 10 9.5815 10 9.24999L10 -2.00001C10 -2.33152 10.1317 -2.64945 10.3662 -2.88386C10.6006 -3.11827 10.9185 -3.24998 11.25 -3.25001L68.75 -3.25001C69.0815 -3.24998 69.3994 -3.11827 69.6338 -2.88386C69.8683 -2.64945 70 -2.33152 70 -2.00001V9.24999C70 9.5815 69.8683 9.89942 69.6338 10.1338C69.3994 10.3683 69.0815 10.5 68.75 10.5L66.25 10.5C64.267 10.5 62.5 12.3873 62.5 14.875C62.5 17.3627 64.267 19.25 66.25 19.25H66.8335C66.9991 19.2476 67.1636 19.2783 67.3173 19.34C67.471 19.4018 67.6109 19.4935 67.7289 19.6098C67.8468 19.7261 67.9405 19.8647 68.0044 20.0175C68.0684 20.1703 68.1013 20.3343 68.1013 20.5C68.1013 20.6656 68.0684 20.8297 68.0044 20.9825C67.9405 21.1353 67.8468 21.2739 67.7289 21.3902C67.6109 21.5065 67.471 21.5982 67.3173 21.66C67.1636 21.7217 66.9991 21.7523 66.8335 21.75H66.25H60V26.1226L60 61.75C60.0001 62.0289 59.9069 62.2999 59.7353 62.5198C59.5636 62.7396 59.3234 62.8958 59.0527 62.9634L51.5527 64.8384L44.2432 66.6645C44.1524 66.7033 44.0573 66.7312 43.96 66.7475L37.5 68.9009V71.75C37.5002 71.9969 37.4272 72.2383 37.2904 72.4439C37.1535 72.6494 36.9589 72.8098 36.731 72.9048L30 75.7075V78.625C30.0001 78.9039 29.9069 79.1749 29.7353 79.3948C29.5636 79.6146 29.3234 79.7708 29.0527 79.8384L21.5527 81.7134C21.4314 81.7432 21.3064 81.7548 21.1816 81.7475ZM22.5 78.8984L27.5 77.6484V74.875L27.5 33.625C27.5 30.8787 29.7537 28.625 32.5 28.625C32.6053 28.624 32.7103 28.6363 32.8125 28.6616C32.9147 28.6363 33.0197 28.624 33.125 28.625C34.0303 28.625 34.8906 28.8687 35.6274 29.2964C35.9143 29.4628 36.1233 29.7363 36.2084 30.0568C36.2936 30.3773 36.248 30.7185 36.0815 31.0054C35.9151 31.2922 35.6416 31.5012 35.3211 31.5864C35.0006 31.6715 34.6594 31.6259 34.3726 31.4595C34.0069 31.2472 33.5847 31.125 33.125 31.125C33.0197 31.126 32.9147 31.1137 32.8125 31.0884C32.7103 31.1137 32.6053 31.126 32.5 31.125C31.1063 31.125 30 32.2313 30 33.625L30 73L35 70.9175V68V64.25H35.0977L35.0342 63.896L35.8008 63.0781L36.2329 63L37.2339 63.5029L37.3682 64.25H37.5V66.2642L42.5 64.5991L42.5 33.625C42.5 30.8787 44.7537 28.625 47.5 28.625C47.6656 28.6226 47.8301 28.6533 47.9838 28.715C48.1375 28.7768 48.2774 28.8685 48.3954 28.9848C48.5133 29.1011 48.607 29.2397 48.6709 29.3925C48.7349 29.5453 48.7678 29.7093 48.7678 29.875C48.7678 30.0406 48.7349 30.2047 48.6709 30.3575C48.607 30.5103 48.5133 30.6489 48.3954 30.7652C48.2774 30.8815 48.1375 30.9732 47.9838 31.035C47.8301 31.0967 47.6656 31.1273 47.5 31.125C46.1063 31.125 45 32.2313 45 33.625L45 63.8984L50.0635 62.6313L50.8154 61.8281L51.25 61.75L52.0288 62.1406L57.5 60.7734L57.5 26.1226V21.75L22.5 21.75V26.125L22.5 78.8984ZM36.2329 60.5L35.2319 59.9971L35.0342 58.896L35.8008 58.0781L36.2329 58L37.2339 58.5029L37.4316 59.604L36.6675 60.4219L36.2329 60.5ZM51.25 59.25L50.249 58.7471L50.0513 57.646L50.8154 56.8281L51.25 56.75L52.251 57.2529L52.4487 58.354L51.6846 59.1719L51.25 59.25ZM36.2329 55.5L35.2319 54.9971L35.0342 53.896L35.8008 53.0781L36.2329 53L37.2339 53.5029L37.4316 54.604L36.6675 55.4219L36.2329 55.5ZM51.25 54.25L50.249 53.7471L50.0513 52.646L50.8154 51.8281L51.25 51.75L52.251 52.2529L52.4487 53.354L51.6846 54.1719L51.25 54.25ZM36.2329 50.5L35.2319 49.9971L35.0342 48.896L35.8008 48.0781L36.2329 48L37.2339 48.5029L37.4316 49.604L36.6675 50.4219L36.2329 50.5ZM51.25 49.25L50.249 48.7471L50.0513 47.646L50.8154 46.8281L51.25 46.75L52.251 47.2529L52.4487 48.354L51.6846 49.1719L51.25 49.25ZM36.2329 45.5L35.2319 44.9971L35.0342 43.896L35.8008 43.0781L36.2329 43L37.2339 43.5029L37.4316 44.604L36.6675 45.4219L36.2329 45.5ZM51.25 44.25L50.249 43.7471L50.0513 42.646L50.8154 41.8281L51.25 41.75L52.251 42.2529L52.4487 43.354L51.6846 44.1719L51.25 44.25ZM36.2329 40.5L35.2319 39.9971L35.0342 38.896L35.8008 38.0781L36.2329 38L37.2339 38.5029L37.4316 39.604L36.6675 40.4219L36.2329 40.5ZM51.25 39.25L50.249 38.7471L50.0513 37.646L50.8154 36.8281L51.25 36.75L52.251 37.2529L52.4487 38.354L51.6846 39.1719L51.25 39.25ZM36.2329 35.5L35.2319 34.9971L35.0342 33.896L35.8008 33.0781L36.2329 33L37.2339 33.5029L37.4316 34.604L36.6675 35.4219L36.2329 35.5ZM51.0571 34.272L50.0562 33.7715L49.8584 32.668L50.6226 31.8501L51.0571 31.772L52.0581 32.2749L52.2559 33.376L51.4917 34.1938L51.0571 34.272ZM18.4644 19.25H21.25L58.75 19.25H61.5356C60.611 18.0405 60 16.5353 60 14.875C60 13.2281 60.5635 11.7052 61.4746 10.5H61.084C60.9183 10.5023 60.7539 10.4717 60.6002 10.41C60.4465 10.3482 60.3066 10.2565 60.1886 10.1402C60.0706 10.0239 59.977 9.8853 59.913 9.73247C59.8491 9.57965 59.8162 9.41565 59.8162 9.24999C59.8162 9.08434 59.8491 8.92033 59.913 8.76751C59.977 8.61469 60.0706 8.4761 60.1886 8.35979C60.3066 8.24349 60.4465 8.15179 60.6002 8.09002C60.7539 8.02825 60.9183 7.99765 61.084 7.99999H67.5V-0.750013H12.5L12.5 7.99999H18.916C19.0817 7.99765 19.2461 8.02825 19.3998 8.09002C19.5535 8.15179 19.6934 8.24349 19.8114 8.35979C19.9294 8.4761 20.023 8.61469 20.087 8.76751C20.1509 8.92033 20.1838 9.08434 20.1838 9.24999C20.1838 9.41565 20.1509 9.57965 20.087 9.73247C20.023 9.8853 19.9294 10.0239 19.8114 10.1402C19.6934 10.2565 19.5535 10.3482 19.3998 10.41C19.2461 10.4717 19.0817 10.5023 18.916 10.5H18.5254C19.4365 11.7052 20 13.2281 20 14.875C20 16.5353 19.389 18.0405 18.4644 19.25ZM22.5 10.5L21.499 9.99706L21.3013 8.89599L22.0654 8.07812L22.5 7.99999L23.501 8.50292L23.6987 9.604L22.9346 10.4219L22.5 10.5ZM27.5 10.5L26.499 9.99706L26.3013 8.89599L27.0654 8.07812L27.5 7.99999L28.501 8.50292L28.6987 9.604L27.9346 10.4219L27.5 10.5ZM32.5 10.5L31.499 9.99706L31.3013 8.89599L32.0654 8.07812L32.5 7.99999L33.501 8.50292L33.6987 9.604L32.9346 10.4219L32.5 10.5ZM37.5 10.5L36.499 9.99706L36.3013 8.89599L37.0654 8.07812L37.5 7.99999L38.501 8.50292L38.6987 9.604L37.9346 10.4219L37.5 10.5ZM42.5 10.5L41.499 9.99706L41.3013 8.89599L42.0654 8.07812L42.5 7.99999L43.501 8.50292L43.6987 9.604L42.9346 10.4219L42.5 10.5ZM47.5 10.5L46.499 9.99706L46.3013 8.89599L47.0654 8.07812L47.5 7.99999L48.501 8.50292L48.6987 9.604L47.9346 10.4219L47.5 10.5ZM52.5 10.5L51.499 9.99706L51.3013 8.89599L52.0654 8.07812L52.5 7.99999L53.501 8.50292L53.6987 9.604L52.9346 10.4219L52.5 10.5ZM57.5 10.5L56.499 9.99706L56.3013 8.89599L57.0654 8.07812L57.5 7.99999L58.501 8.50292L58.6987 9.604L57.9346 10.4219L57.5 10.5Z"
      fill="white" />
    <path
      d="M238.818 81.7475C239.137 81.73 239.438 81.591 239.657 81.359C239.877 81.1269 240 80.8196 240 80.5V26.125V21.75H246.25H246.833C246.999 21.7523 247.164 21.7217 247.317 21.66C247.471 21.5982 247.611 21.5065 247.729 21.3902C247.847 21.2739 247.941 21.1353 248.004 20.9825C248.068 20.8297 248.101 20.6656 248.101 20.5C248.101 20.3343 248.068 20.1703 248.004 20.0175C247.941 19.8647 247.847 19.7261 247.729 19.6098C247.611 19.4935 247.471 19.4018 247.317 19.34C247.164 19.2783 246.999 19.2476 246.833 19.25H246.25C244.267 19.25 242.5 17.3627 242.5 14.875C242.5 12.3873 244.267 10.5 246.25 10.5H248.75C249.082 10.5 249.399 10.3683 249.634 10.1338C249.868 9.89942 250 9.5815 250 9.24999V-2.00001C250 -2.33152 249.868 -2.64945 249.634 -2.88386C249.399 -3.11827 249.082 -3.24998 248.75 -3.25001L191.25 -3.25001C190.918 -3.24998 190.601 -3.11827 190.366 -2.88386C190.132 -2.64945 190 -2.33152 190 -2.00001V9.24999C190 9.5815 190.132 9.89942 190.366 10.1338C190.601 10.3683 190.918 10.5 191.25 10.5L193.75 10.5C195.733 10.5 197.5 12.3873 197.5 14.875C197.5 17.3627 195.733 19.25 193.75 19.25H193.167C193.001 19.2476 192.836 19.2783 192.683 19.34C192.529 19.4018 192.389 19.4935 192.271 19.6098C192.153 19.7261 192.059 19.8647 191.996 20.0175C191.932 20.1703 191.899 20.3343 191.899 20.5C191.899 20.6656 191.932 20.8297 191.996 20.9825C192.059 21.1353 192.153 21.2739 192.271 21.3902C192.389 21.5065 192.529 21.5982 192.683 21.66C192.836 21.7217 193.001 21.7523 193.167 21.75H193.75H200V26.1226V61.75C200 62.0289 200.093 62.2999 200.265 62.5198C200.436 62.7396 200.677 62.8958 200.947 62.9634L208.447 64.8384L215.757 66.6645C215.848 66.7033 215.943 66.7312 216.04 66.7475L222.5 68.9009V71.75C222.5 71.9969 222.573 72.2383 222.71 72.4439C222.846 72.6494 223.041 72.8098 223.269 72.9048L230 75.7075V78.625C230 78.9039 230.093 79.1749 230.265 79.3948C230.436 79.6146 230.677 79.7708 230.947 79.8384L238.447 81.7134C238.569 81.7432 238.694 81.7548 238.818 81.7475ZM237.5 78.8984L232.5 77.6484V74.875V33.625C232.5 30.8787 230.246 28.625 227.5 28.625C227.395 28.624 227.29 28.6363 227.188 28.6616C227.085 28.6363 226.98 28.624 226.875 28.625C225.97 28.625 225.109 28.8687 224.373 29.2964C224.086 29.4628 223.877 29.7363 223.792 30.0568C223.706 30.3773 223.752 30.7185 223.918 31.0054C224.085 31.2922 224.358 31.5012 224.679 31.5864C224.999 31.6715 225.341 31.6259 225.627 31.4595C225.993 31.2472 226.415 31.125 226.875 31.125C226.98 31.126 227.085 31.1137 227.188 31.0884C227.29 31.1137 227.395 31.126 227.5 31.125C228.894 31.125 230 32.2313 230 33.625V73L225 70.9175V68V64.25H224.902L224.966 63.896L224.199 63.0781L223.767 63L222.766 63.5029L222.632 64.25H222.5V66.2642L217.5 64.5991V33.625C217.5 30.8787 215.246 28.625 212.5 28.625C212.334 28.6226 212.17 28.6533 212.016 28.715C211.862 28.7768 211.723 28.8685 211.605 28.9848C211.487 29.1011 211.393 29.2397 211.329 29.3925C211.265 29.5453 211.232 29.7093 211.232 29.875C211.232 30.0406 211.265 30.2047 211.329 30.3575C211.393 30.5103 211.487 30.6489 211.605 30.7652C211.723 30.8815 211.862 30.9732 212.016 31.035C212.17 31.0967 212.334 31.1273 212.5 31.125C213.894 31.125 215 32.2313 215 33.625V63.8984L209.937 62.6313L209.185 61.8281L208.75 61.75L207.971 62.1406L202.5 60.7734V26.1226V21.75L237.5 21.75V26.125V78.8984ZM223.767 60.5L224.768 59.9971L224.966 58.896L224.199 58.0781L223.767 58L222.766 58.5029L222.568 59.604L223.333 60.4219L223.767 60.5ZM208.75 59.25L209.751 58.7471L209.949 57.646L209.185 56.8281L208.75 56.75L207.749 57.2529L207.551 58.354L208.315 59.1719L208.75 59.25ZM223.767 55.5L224.768 54.9971L224.966 53.896L224.199 53.0781L223.767 53L222.766 53.5029L222.568 54.604L223.333 55.4219L223.767 55.5ZM208.75 54.25L209.751 53.7471L209.949 52.646L209.185 51.8281L208.75 51.75L207.749 52.2529L207.551 53.354L208.315 54.1719L208.75 54.25ZM223.767 50.5L224.768 49.9971L224.966 48.896L224.199 48.0781L223.767 48L222.766 48.5029L222.568 49.604L223.333 50.4219L223.767 50.5ZM208.75 49.25L209.751 48.7471L209.949 47.646L209.185 46.8281L208.75 46.75L207.749 47.2529L207.551 48.354L208.315 49.1719L208.75 49.25ZM223.767 45.5L224.768 44.9971L224.966 43.896L224.199 43.0781L223.767 43L222.766 43.5029L222.568 44.604L223.333 45.4219L223.767 45.5ZM208.75 44.25L209.751 43.7471L209.949 42.646L209.185 41.8281L208.75 41.75L207.749 42.2529L207.551 43.354L208.315 44.1719L208.75 44.25ZM223.767 40.5L224.768 39.9971L224.966 38.896L224.199 38.0781L223.767 38L222.766 38.5029L222.568 39.604L223.333 40.4219L223.767 40.5ZM208.75 39.25L209.751 38.7471L209.949 37.646L209.185 36.8281L208.75 36.75L207.749 37.2529L207.551 38.354L208.315 39.1719L208.75 39.25ZM223.767 35.5L224.768 34.9971L224.966 33.896L224.199 33.0781L223.767 33L222.766 33.5029L222.568 34.604L223.333 35.4219L223.767 35.5ZM208.943 34.272L209.944 33.7715L210.142 32.668L209.377 31.8501L208.943 31.772L207.942 32.2749L207.744 33.376L208.508 34.1938L208.943 34.272ZM241.536 19.25H238.75L201.25 19.25H198.464C199.389 18.0405 200 16.5353 200 14.875C200 13.2281 199.437 11.7052 198.525 10.5H198.916C199.082 10.5023 199.246 10.4717 199.4 10.41C199.554 10.3482 199.693 10.2565 199.811 10.1402C199.929 10.0239 200.023 9.8853 200.087 9.73247C200.151 9.57965 200.184 9.41565 200.184 9.24999C200.184 9.08434 200.151 8.92033 200.087 8.76751C200.023 8.61469 199.929 8.4761 199.811 8.35979C199.693 8.24349 199.554 8.15179 199.4 8.09002C199.246 8.02825 199.082 7.99765 198.916 7.99999H192.5V-0.750013H247.5V7.99999H241.084C240.918 7.99765 240.754 8.02825 240.6 8.09002C240.446 8.15179 240.307 8.24349 240.189 8.35979C240.071 8.4761 239.977 8.61469 239.913 8.76751C239.849 8.92033 239.816 9.08434 239.816 9.24999C239.816 9.41565 239.849 9.57965 239.913 9.73247C239.977 9.8853 240.071 10.0239 240.189 10.1402C240.307 10.2565 240.446 10.3482 240.6 10.41C240.754 10.4717 240.918 10.5023 241.084 10.5H241.475C240.563 11.7052 240 13.2281 240 14.875C240 16.5353 240.611 18.0405 241.536 19.25ZM237.5 10.5L238.501 9.99706L238.699 8.89599L237.935 8.07812L237.5 7.99999L236.499 8.50292L236.301 9.604L237.065 10.4219L237.5 10.5ZM232.5 10.5L233.501 9.99706L233.699 8.89599L232.935 8.07812L232.5 7.99999L231.499 8.50292L231.301 9.604L232.065 10.4219L232.5 10.5ZM227.5 10.5L228.501 9.99706L228.699 8.89599L227.935 8.07812L227.5 7.99999L226.499 8.50292L226.301 9.604L227.065 10.4219L227.5 10.5ZM222.5 10.5L223.501 9.99706L223.699 8.89599L222.935 8.07812L222.5 7.99999L221.499 8.50292L221.301 9.604L222.065 10.4219L222.5 10.5ZM217.5 10.5L218.501 9.99706L218.699 8.89599L217.935 8.07812L217.5 7.99999L216.499 8.50292L216.301 9.604L217.065 10.4219L217.5 10.5ZM212.5 10.5L213.501 9.99706L213.699 8.89599L212.935 8.07812L212.5 7.99999L211.499 8.50292L211.301 9.604L212.065 10.4219L212.5 10.5ZM207.5 10.5L208.501 9.99706L208.699 8.89599L207.935 8.07812L207.5 7.99999L206.499 8.50292L206.301 9.604L207.065 10.4219L207.5 10.5ZM202.5 10.5L203.501 9.99706L203.699 8.89599L202.935 8.07812L202.5 7.99999L201.499 8.50292L201.301 9.604L202.065 10.4219L202.5 10.5Z"
      fill="white" />
    <g clip-path="url(#clip1_11_67)">
      <path
        d="M127.269 119.511C100.815 119.793 97.5389 144.006 97.2211 147.248C96.2023 149.29 90.9556 160.864 97.0837 171.387C94.5322 182.675 100.303 189.09 102.015 190.699C102.52 192.872 104.846 200.62 113.109 205.042C116.624 214.569 125.976 217.786 126.381 217.921C127.049 218.146 127.784 217.89 128.175 217.304L130 214.567L131.825 217.304C132.12 217.748 132.614 218 133.125 218C133.289 218 133.457 217.975 133.622 217.921C134.027 217.786 143.379 214.569 146.895 205.039C155.213 200.583 157.262 192.754 157.676 190.617C159.173 188.987 164.256 182.522 162.547 171.494C169.463 161.085 162.47 149.539 160.89 147.184C160.793 144.721 159.92 134.079 152.134 126.667C146.7 121.492 139.176 119.105 129.902 119.559C129 119.517 128.122 119.502 127.269 119.511ZM130 122.688C140.339 122.688 148.75 128.295 148.75 135.188C148.75 139.714 150.218 144.986 151.515 149.638C152.502 153.184 153.437 156.533 153.437 158.625C153.437 160.714 152.485 164.692 151.646 168.201C151.402 169.209 151.167 170.188 150.959 171.094L143.766 176.142C142.488 170.311 137.186 166.438 130 166.438C122.814 166.438 117.51 170.309 116.234 176.142L109.041 171.098C108.833 170.19 108.599 169.212 108.357 168.204C107.516 164.694 106.562 160.714 106.562 158.625C106.562 156.663 107.378 153.901 108.323 150.706C109.626 146.29 111.25 140.798 111.25 135.188C111.25 128.295 119.661 122.688 130 122.688ZM110.878 127.616C109.128 129.861 108.125 132.441 108.125 135.188C108.125 140.347 106.637 145.379 105.327 149.818C104.312 153.247 103.437 156.209 103.437 158.625C103.437 161.084 104.392 165.073 105.317 168.931C105.608 170.143 105.892 171.314 106.123 172.364C106.206 172.748 106.428 173.082 106.749 173.307L116.603 180.216C117.082 180.551 117.705 180.593 118.223 180.323C118.739 180.054 119.062 179.52 119.062 178.938C119.062 172.461 124.556 169.563 130 169.563C135.444 169.563 140.937 172.461 140.937 178.938C140.937 179.52 141.261 180.054 141.777 180.323C142.005 180.442 142.253 180.5 142.5 180.5C142.816 180.5 143.128 180.404 143.397 180.216L153.251 173.307C153.572 173.082 153.793 172.747 153.877 172.364C154.11 171.314 154.392 170.143 154.683 168.931C155.608 165.073 156.562 161.083 156.562 158.625C156.562 156.106 155.618 152.72 154.524 148.798C153.282 144.339 151.875 139.286 151.875 135.188C151.875 133.034 151.262 130.98 150.154 129.111C157.648 136.429 157.777 147.578 157.777 147.691C157.779 148.025 157.888 148.353 158.088 148.621C158.441 149.095 166.673 160.356 159.633 170.216C159.389 170.556 159.291 170.983 159.364 171.397C161.35 182.67 155.396 188.496 155.146 188.734C154.884 188.981 154.713 189.311 154.664 189.667C154.624 189.968 153.707 196.13 148.063 200.547C148.371 197.653 147.747 195.16 147.157 192.89C146.493 190.335 145.922 188.13 146.736 185.679C147.008 184.86 146.56 183.976 145.741 183.704C144.924 183.436 144.04 183.877 143.766 184.696C142.662 188.024 143.411 190.899 144.133 193.677C144.925 196.729 145.672 199.611 144.172 203.358C144.165 203.376 144.17 203.395 144.163 203.413C144.159 203.424 144.149 203.432 144.145 203.443C141.92 210.115 136.131 213.392 133.714 214.503L131.562 211.277V203.938C131.562 203.073 130.864 202.375 130 202.375C129.136 202.375 128.437 203.073 128.437 203.938V211.277L126.283 214.509C123.869 213.406 118.091 210.149 115.855 203.443C115.851 203.432 115.841 203.424 115.837 203.413C115.83 203.395 115.835 203.376 115.828 203.358C114.292 199.515 114.762 196.585 115.26 193.485C115.698 190.754 116.152 187.932 115.077 184.696C114.803 183.876 113.918 183.436 113.102 183.704C112.282 183.976 111.839 184.862 112.111 185.679C112.943 188.191 112.589 190.416 112.175 192.991C111.816 195.222 111.442 197.666 111.848 200.492C106.172 196.06 105.03 189.917 104.979 189.619C104.916 189.244 104.714 188.898 104.42 188.657C104.136 188.425 97.4402 182.811 100.267 171.503C100.371 171.094 100.303 170.657 100.078 170.298C93.8806 160.37 100.065 148.543 100.129 148.426C100.234 148.226 100.297 148.003 100.309 147.776C100.354 147.031 101.233 134.732 110.878 127.616ZM121.605 132.984C120.004 132.981 118.463 133.222 117.006 133.707C116.187 133.979 115.746 134.863 116.02 135.682C116.293 136.501 117.168 136.946 117.994 136.671C122.133 135.289 126.429 136.71 129.301 138.148C129.52 138.257 129.761 138.313 130 138.313C130.239 138.313 130.48 138.257 130.699 138.148C133.571 136.71 137.867 135.289 142.006 136.671C142.832 136.946 143.707 136.499 143.98 135.682C144.254 134.862 143.812 133.979 142.994 133.707C139.11 132.409 134.628 132.865 130 135.017C127.107 133.672 124.272 132.99 121.605 132.984ZM119.236 144.617C117.389 144.611 115.496 145.189 113.569 146.351C112.83 146.796 112.593 147.757 113.038 148.496C113.332 148.982 113.848 149.25 114.378 149.25C114.653 149.25 114.931 149.179 115.184 149.027C117.981 147.34 120.426 147.327 122.877 148.981C123.591 149.466 124.56 149.279 125.044 148.563C125.527 147.849 125.341 146.876 124.626 146.394C122.884 145.215 121.084 144.624 119.236 144.617ZM141.111 144.617C139.264 144.611 137.371 145.189 135.444 146.351C134.705 146.796 134.468 147.757 134.913 148.496C135.207 148.982 135.723 149.25 136.253 149.25C136.528 149.25 136.806 149.179 137.059 149.027C139.856 147.34 142.301 147.327 144.752 148.981C145.465 149.466 146.435 149.279 146.919 148.563C147.402 147.849 147.216 146.876 146.501 146.394C144.759 145.215 142.959 144.624 141.111 144.617ZM119.062 149.25C118.234 149.25 117.439 149.579 116.853 150.165C116.267 150.751 115.937 151.546 115.937 152.375C115.937 153.204 116.267 153.999 116.853 154.585C117.439 155.171 118.234 155.5 119.062 155.5C119.891 155.5 120.686 155.171 121.272 154.585C121.858 153.999 122.187 153.204 122.187 152.375C122.187 151.546 121.858 150.751 121.272 150.165C120.686 149.579 119.891 149.25 119.062 149.25ZM140.937 149.25C140.109 149.25 139.314 149.579 138.728 150.165C138.142 150.751 137.812 151.546 137.812 152.375C137.812 153.204 138.142 153.999 138.728 154.585C139.314 155.171 140.109 155.5 140.937 155.5C141.766 155.5 142.561 155.171 143.147 154.585C143.733 153.999 144.062 153.204 144.062 152.375C144.062 151.546 143.733 150.751 143.147 150.165C142.561 149.579 141.766 149.25 140.937 149.25ZM130 157.063C126.553 157.063 123.75 159.866 123.75 163.313C123.75 164.177 124.448 164.875 125.312 164.875C126.177 164.875 126.875 164.177 126.875 163.313C126.875 161.589 128.277 160.188 130 160.188C131.723 160.188 133.125 161.589 133.125 163.313C133.125 164.177 133.823 164.875 134.687 164.875C135.552 164.875 136.25 164.177 136.25 163.313C136.25 159.866 133.447 157.063 130 157.063ZM125.312 175.813C124.448 175.813 123.75 176.511 123.75 177.375C123.75 178.239 124.448 178.938 125.312 178.938H134.687C135.552 178.938 136.25 178.239 136.25 177.375C136.25 176.511 135.552 175.813 134.687 175.813H125.312ZM120.5 189.881C119.891 189.93 119.346 190.33 119.142 190.943C119.118 191.017 118.547 192.757 118.348 195.243C118.28 196.104 118.922 196.856 119.783 196.925C119.823 196.928 119.867 196.928 119.908 196.928C120.716 196.928 121.397 196.309 121.464 195.49C121.628 193.407 122.103 191.944 122.108 191.929C122.378 191.11 121.935 190.228 121.119 189.954C120.913 189.888 120.703 189.865 120.5 189.881ZM120.506 198.978C120.307 198.941 120.096 198.941 119.886 198.988C119.044 199.172 118.512 200.005 118.696 200.849C119.324 203.71 120.653 206.173 122.645 208.167C122.95 208.472 123.35 208.625 123.75 208.625C124.15 208.625 124.55 208.473 124.855 208.167C125.466 207.558 125.466 206.569 124.855 205.958C123.291 204.392 122.246 202.448 121.748 200.178C121.61 199.546 121.104 199.09 120.506 198.978Z"
        fill="white" />
    </g>
    <path
      d="M96.18 235.58C96.9667 235.58 97.5733 235.667 98 235.84C98.4267 236 98.7933 236.173 99.1 236.36C99.26 236.453 99.3867 236.527 99.48 236.58C99.5867 236.62 99.6867 236.64 99.78 236.64C99.9133 236.64 100.007 236.567 100.06 236.42C100.127 236.273 100.18 236.053 100.22 235.76H100.68C100.667 236.013 100.647 236.32 100.62 236.68C100.607 237.027 100.593 237.487 100.58 238.06C100.58 238.633 100.58 239.387 100.58 240.32H100.12C100.067 239.627 99.9067 238.953 99.64 238.3C99.3733 237.647 98.9933 237.113 98.5 236.7C98.02 236.273 97.4267 236.06 96.72 236.06C96.08 236.06 95.5533 236.24 95.14 236.6C94.7267 236.96 94.52 237.46 94.52 238.1C94.52 238.633 94.6533 239.093 94.92 239.48C95.1867 239.853 95.5733 240.22 96.08 240.58C96.6 240.94 97.2267 241.373 97.96 241.88C98.6 242.293 99.1733 242.707 99.68 243.12C100.187 243.533 100.593 244 100.9 244.52C101.207 245.04 101.36 245.66 101.36 246.38C101.36 247.26 101.127 247.987 100.66 248.56C100.207 249.133 99.6067 249.567 98.86 249.86C98.1133 250.14 97.2933 250.28 96.4 250.28C95.5733 250.28 94.9133 250.2 94.42 250.04C93.9267 249.88 93.5133 249.713 93.18 249.54C92.8867 249.353 92.66 249.26 92.5 249.26C92.3667 249.26 92.2667 249.333 92.2 249.48C92.1467 249.627 92.1 249.847 92.06 250.14H91.6C91.6267 249.82 91.64 249.447 91.64 249.02C91.6533 248.593 91.66 248.04 91.66 247.36C91.6733 246.667 91.68 245.793 91.68 244.74H92.14C92.1933 245.62 92.34 246.447 92.58 247.22C92.8333 247.98 93.2133 248.593 93.72 249.06C94.24 249.527 94.9267 249.76 95.78 249.76C96.2467 249.76 96.66 249.68 97.02 249.52C97.3933 249.347 97.6933 249.093 97.92 248.76C98.1467 248.427 98.26 248.013 98.26 247.52C98.26 246.96 98.1267 246.473 97.86 246.06C97.6067 245.647 97.2533 245.26 96.8 244.9C96.36 244.54 95.8467 244.173 95.26 243.8C94.6333 243.387 94.0467 242.973 93.5 242.56C92.9533 242.147 92.5133 241.673 92.18 241.14C91.86 240.607 91.7 239.973 91.7 239.24C91.7 238.4 91.9067 237.713 92.32 237.18C92.7467 236.633 93.3 236.233 93.98 235.98C94.6733 235.713 95.4067 235.58 96.18 235.58ZM107.82 239.38C108.793 239.38 109.646 239.56 110.38 239.92C111.113 240.28 111.686 240.86 112.1 241.66C112.513 242.46 112.72 243.52 112.72 244.84C112.72 246.16 112.513 247.22 112.1 248.02C111.686 248.807 111.113 249.38 110.38 249.74C109.646 250.1 108.793 250.28 107.82 250.28C106.873 250.28 106.026 250.1 105.28 249.74C104.546 249.38 103.966 248.807 103.54 248.02C103.126 247.22 102.92 246.16 102.92 244.84C102.92 243.52 103.126 242.46 103.54 241.66C103.966 240.86 104.546 240.28 105.28 239.92C106.026 239.56 106.873 239.38 107.82 239.38ZM107.82 239.78C107.286 239.78 106.84 240.18 106.48 240.98C106.12 241.767 105.94 243.053 105.94 244.84C105.94 246.627 106.12 247.913 106.48 248.7C106.84 249.487 107.286 249.88 107.82 249.88C108.366 249.88 108.813 249.487 109.16 248.7C109.52 247.913 109.7 246.627 109.7 244.84C109.7 243.053 109.52 241.767 109.16 240.98C108.813 240.18 108.366 239.78 107.82 239.78ZM110.04 233.66C110.266 233.833 110.386 234.073 110.4 234.38C110.413 234.687 110.313 234.973 110.1 235.24C109.886 235.507 109.626 235.747 109.32 235.96C109.013 236.173 108.646 236.433 108.22 236.74C107.806 237.047 107.306 237.473 106.72 238.02L106.5 237.84C106.9 237.12 107.193 236.52 107.38 236.04C107.566 235.547 107.726 235.127 107.86 234.78C107.993 234.433 108.173 234.133 108.4 233.88C108.6 233.613 108.86 233.46 109.18 233.42C109.513 233.367 109.8 233.447 110.04 233.66ZM119.168 239.38C119.688 239.38 120.162 239.44 120.588 239.56C121.028 239.667 121.388 239.807 121.668 239.98C122.015 240.193 122.282 240.46 122.468 240.78C122.668 241.087 122.768 241.447 122.768 241.86C122.768 242.327 122.622 242.713 122.328 243.02C122.035 243.313 121.655 243.46 121.188 243.46C120.722 243.46 120.348 243.327 120.068 243.06C119.788 242.793 119.648 242.433 119.648 241.98C119.648 241.553 119.782 241.2 120.048 240.92C120.315 240.627 120.622 240.433 120.968 240.34C120.862 240.207 120.702 240.093 120.488 240C120.275 239.907 120.035 239.86 119.768 239.86C119.355 239.86 118.988 239.98 118.668 240.22C118.362 240.46 118.102 240.793 117.888 241.22C117.675 241.647 117.508 242.147 117.388 242.72C117.282 243.293 117.228 243.92 117.228 244.6C117.228 245.627 117.355 246.433 117.608 247.02C117.875 247.607 118.208 248.02 118.608 248.26C119.022 248.5 119.448 248.62 119.888 248.62C120.142 248.62 120.415 248.58 120.708 248.5C121.015 248.42 121.322 248.26 121.628 248.02C121.948 247.78 122.242 247.44 122.508 247L122.848 247.12C122.702 247.613 122.462 248.107 122.128 248.6C121.795 249.093 121.362 249.5 120.828 249.82C120.295 250.127 119.642 250.28 118.868 250.28C118.002 250.28 117.215 250.093 116.508 249.72C115.815 249.333 115.255 248.747 114.828 247.96C114.415 247.16 114.208 246.133 114.208 244.88C114.208 243.68 114.422 242.673 114.848 241.86C115.288 241.033 115.882 240.413 116.628 240C117.375 239.587 118.222 239.38 119.168 239.38ZM130.77 239.38C131.197 239.38 131.543 239.473 131.81 239.66C132.077 239.833 132.27 240.06 132.39 240.34C132.523 240.62 132.59 240.913 132.59 241.22C132.59 241.713 132.443 242.12 132.15 242.44C131.87 242.747 131.497 242.9 131.03 242.9C130.563 242.9 130.197 242.787 129.93 242.56C129.677 242.32 129.55 242.007 129.55 241.62C129.55 241.247 129.63 240.94 129.79 240.7C129.963 240.447 130.177 240.233 130.43 240.06C130.243 240.007 130.057 240.013 129.87 240.08C129.617 240.12 129.377 240.227 129.15 240.4C128.923 240.56 128.73 240.767 128.57 241.02C128.41 241.26 128.283 241.527 128.19 241.82C128.097 242.1 128.05 242.373 128.05 242.64V247.94C128.05 248.58 128.203 249.013 128.51 249.24C128.83 249.467 129.303 249.58 129.93 249.58V250C129.623 249.987 129.177 249.973 128.59 249.96C128.003 249.933 127.39 249.92 126.75 249.92C126.217 249.92 125.677 249.933 125.13 249.96C124.583 249.973 124.17 249.987 123.89 250V249.58C124.357 249.58 124.683 249.48 124.87 249.28C125.07 249.08 125.17 248.7 125.17 248.14V241.84C125.17 241.24 125.077 240.8 124.89 240.52C124.717 240.227 124.383 240.08 123.89 240.08V239.66C124.317 239.7 124.73 239.72 125.13 239.72C125.69 239.72 126.21 239.7 126.69 239.66C127.183 239.607 127.637 239.533 128.05 239.44V241.3C128.21 240.94 128.423 240.613 128.69 240.32C128.957 240.027 129.263 239.8 129.61 239.64C129.957 239.467 130.343 239.38 130.77 239.38ZM135.986 250.14C135.386 250.14 134.886 250.027 134.486 249.8C134.086 249.573 133.793 249.273 133.606 248.9C133.419 248.513 133.326 248.093 133.326 247.64C133.326 247.067 133.453 246.6 133.706 246.24C133.973 245.88 134.313 245.587 134.726 245.36C135.139 245.133 135.573 244.947 136.026 244.8C136.493 244.653 136.933 244.513 137.346 244.38C137.773 244.233 138.113 244.067 138.366 243.88C138.633 243.68 138.766 243.427 138.766 243.12V241.56C138.766 241.213 138.706 240.907 138.586 240.64C138.479 240.36 138.306 240.147 138.066 240C137.839 239.853 137.539 239.78 137.166 239.78C136.899 239.78 136.633 239.82 136.366 239.9C136.099 239.967 135.879 240.087 135.706 240.26C136.079 240.393 136.366 240.6 136.566 240.88C136.779 241.147 136.886 241.453 136.886 241.8C136.886 242.253 136.726 242.613 136.406 242.88C136.099 243.147 135.733 243.28 135.306 243.28C134.826 243.28 134.459 243.133 134.206 242.84C133.966 242.533 133.846 242.167 133.846 241.74C133.846 241.353 133.939 241.033 134.126 240.78C134.326 240.527 134.599 240.287 134.946 240.06C135.319 239.847 135.766 239.68 136.286 239.56C136.819 239.44 137.393 239.38 138.006 239.38C138.619 239.38 139.173 239.447 139.666 239.58C140.159 239.7 140.573 239.927 140.906 240.26C141.213 240.567 141.413 240.947 141.506 241.4C141.599 241.84 141.646 242.4 141.646 243.08V248.52C141.646 248.853 141.679 249.087 141.746 249.22C141.813 249.34 141.926 249.4 142.086 249.4C142.206 249.4 142.319 249.367 142.426 249.3C142.546 249.233 142.673 249.153 142.806 249.06L143.006 249.4C142.726 249.64 142.399 249.827 142.026 249.96C141.666 250.08 141.259 250.14 140.806 250.14C140.313 250.14 139.919 250.073 139.626 249.94C139.333 249.793 139.119 249.6 138.986 249.36C138.866 249.12 138.806 248.84 138.806 248.52C138.486 249.027 138.099 249.427 137.646 249.72C137.193 250 136.639 250.14 135.986 250.14ZM137.406 248.86C137.673 248.86 137.913 248.8 138.126 248.68C138.353 248.547 138.566 248.333 138.766 248.04V243.94C138.646 244.14 138.479 244.32 138.266 244.48C138.053 244.64 137.826 244.807 137.586 244.98C137.346 245.14 137.113 245.32 136.886 245.52C136.673 245.72 136.499 245.967 136.366 246.26C136.233 246.553 136.166 246.907 136.166 247.32C136.166 247.84 136.279 248.227 136.506 248.48C136.733 248.733 137.033 248.86 137.406 248.86ZM147.638 236.38V239.66H149.998V240.06H147.638V248.14C147.638 248.54 147.711 248.827 147.858 249C148.004 249.16 148.224 249.24 148.518 249.24C148.758 249.24 148.998 249.153 149.238 248.98C149.478 248.793 149.691 248.48 149.878 248.04L150.218 248.22C150.004 248.82 149.678 249.313 149.238 249.7C148.811 250.087 148.224 250.28 147.478 250.28C147.038 250.28 146.651 250.22 146.318 250.1C145.984 249.993 145.704 249.827 145.478 249.6C145.184 249.307 144.991 248.947 144.898 248.52C144.804 248.08 144.758 247.513 144.758 246.82V240.06H143.078V239.66H144.758V237.02C145.318 237.02 145.831 236.973 146.298 236.88C146.778 236.773 147.224 236.607 147.638 236.38ZM155.691 239.38C156.864 239.38 157.784 239.727 158.451 240.42C159.117 241.113 159.451 242.247 159.451 243.82H152.871L152.831 243.44H156.931C156.944 242.787 156.904 242.187 156.811 241.64C156.717 241.08 156.571 240.633 156.371 240.3C156.171 239.967 155.904 239.8 155.571 239.8C155.104 239.8 154.704 240.093 154.371 240.68C154.051 241.267 153.857 242.24 153.791 243.6L153.851 243.72C153.837 243.88 153.824 244.047 153.811 244.22C153.811 244.393 153.811 244.573 153.811 244.76C153.811 245.68 153.937 246.427 154.191 247C154.457 247.573 154.791 247.993 155.191 248.26C155.591 248.513 155.997 248.64 156.411 248.64C156.691 248.64 156.977 248.6 157.271 248.52C157.577 248.427 157.884 248.267 158.191 248.04C158.497 247.8 158.784 247.467 159.051 247.04L159.411 247.16C159.251 247.667 158.997 248.16 158.651 248.64C158.304 249.12 157.864 249.513 157.331 249.82C156.797 250.127 156.157 250.28 155.411 250.28C154.504 250.28 153.704 250.087 153.011 249.7C152.317 249.313 151.771 248.727 151.371 247.94C150.984 247.153 150.791 246.153 150.791 244.94C150.791 243.7 150.997 242.667 151.411 241.84C151.837 241.013 152.417 240.4 153.151 240C153.897 239.587 154.744 239.38 155.691 239.38ZM164.569 239.38C165.129 239.38 165.616 239.453 166.029 239.6C166.456 239.733 166.762 239.867 166.949 240C167.402 240.307 167.682 240.107 167.789 239.4H168.209C168.182 239.773 168.162 240.233 168.149 240.78C168.136 241.313 168.129 242.027 168.129 242.92H167.709C167.642 242.427 167.516 241.94 167.329 241.46C167.142 240.98 166.869 240.587 166.509 240.28C166.162 239.973 165.709 239.82 165.149 239.82C164.762 239.82 164.436 239.933 164.169 240.16C163.902 240.373 163.769 240.687 163.769 241.1C163.769 241.5 163.889 241.853 164.129 242.16C164.369 242.453 164.676 242.74 165.049 243.02C165.436 243.287 165.836 243.573 166.249 243.88C166.689 244.213 167.089 244.547 167.449 244.88C167.809 245.2 168.096 245.553 168.309 245.94C168.522 246.327 168.629 246.787 168.629 247.32C168.629 247.92 168.456 248.447 168.109 248.9C167.762 249.34 167.302 249.68 166.729 249.92C166.169 250.16 165.542 250.28 164.849 250.28C164.449 250.28 164.089 250.24 163.769 250.16C163.462 250.08 163.196 249.98 162.969 249.86C162.796 249.78 162.629 249.707 162.469 249.64C162.322 249.56 162.182 249.493 162.049 249.44C161.916 249.4 161.796 249.447 161.689 249.58C161.596 249.713 161.522 249.9 161.469 250.14H161.049C161.076 249.713 161.096 249.193 161.109 248.58C161.122 247.967 161.129 247.153 161.129 246.14H161.549C161.629 246.86 161.776 247.5 161.989 248.06C162.202 248.607 162.489 249.04 162.849 249.36C163.222 249.667 163.689 249.82 164.249 249.82C164.476 249.82 164.696 249.773 164.909 249.68C165.122 249.587 165.296 249.433 165.429 249.22C165.576 249.007 165.649 248.733 165.649 248.4C165.649 247.813 165.456 247.327 165.069 246.94C164.696 246.553 164.216 246.133 163.629 245.68C163.202 245.333 162.796 244.993 162.409 244.66C162.036 244.313 161.729 243.94 161.489 243.54C161.249 243.127 161.129 242.66 161.129 242.14C161.129 241.54 161.289 241.033 161.609 240.62C161.929 240.207 162.349 239.9 162.869 239.7C163.402 239.487 163.969 239.38 164.569 239.38Z"
      fill="white" />
    <path
      d="M21.1816 291.252C20.8625 291.27 20.5623 291.409 20.3425 291.641C20.1227 291.873 20.0002 292.18 20 292.5L20 346.875V351.25H13.75H13.1665C13.0009 351.248 12.8364 351.278 12.6827 351.34C12.529 351.402 12.3891 351.493 12.2711 351.61C12.1532 351.726 12.0595 351.865 11.9956 352.018C11.9316 352.17 11.8987 352.334 11.8987 352.5C11.8987 352.666 11.9316 352.83 11.9956 352.982C12.0595 353.135 12.1532 353.274 12.2711 353.39C12.3891 353.507 12.529 353.598 12.6827 353.66C12.8364 353.722 13.0009 353.752 13.1665 353.75H13.75C15.733 353.75 17.5 355.637 17.5 358.125C17.5 360.613 15.733 362.5 13.75 362.5H11.25C10.9185 362.5 10.6006 362.632 10.3662 362.866C10.1317 363.101 10 363.418 10 363.75L10 375C10 375.332 10.1317 375.649 10.3662 375.884C10.6006 376.118 10.9185 376.25 11.25 376.25H68.75C69.0815 376.25 69.3994 376.118 69.6338 375.884C69.8683 375.649 70 375.332 70 375V363.75C70 363.418 69.8683 363.101 69.6338 362.866C69.3994 362.632 69.0815 362.5 68.75 362.5H66.25C64.267 362.5 62.5 360.613 62.5 358.125C62.5 355.637 64.267 353.75 66.25 353.75H66.8335C66.9991 353.752 67.1636 353.722 67.3173 353.66C67.471 353.598 67.6109 353.507 67.7289 353.39C67.8468 353.274 67.9405 353.135 68.0044 352.982C68.0684 352.83 68.1013 352.666 68.1013 352.5C68.1013 352.334 68.0684 352.17 68.0044 352.018C67.9405 351.865 67.8468 351.726 67.7289 351.61C67.6109 351.493 67.471 351.402 67.3173 351.34C67.1636 351.278 66.9991 351.248 66.8335 351.25H66.25H60V346.877L60 311.25C60.0001 310.971 59.9069 310.7 59.7353 310.48C59.5636 310.26 59.3234 310.104 59.0527 310.037L51.5527 308.162L44.2432 306.335C44.1524 306.297 44.0573 306.269 43.96 306.252L37.5 304.099V301.25C37.5002 301.003 37.4272 300.762 37.2904 300.556C37.1535 300.351 36.9589 300.19 36.731 300.095L30 297.292V294.375C30.0001 294.096 29.9069 293.825 29.7353 293.605C29.5636 293.385 29.3234 293.229 29.0527 293.162L21.5527 291.287C21.4314 291.257 21.3064 291.245 21.1816 291.252ZM22.5 294.102L27.5 295.352V298.125L27.5 339.375C27.5 342.121 29.7537 344.375 32.5 344.375C32.6053 344.376 32.7103 344.364 32.8125 344.338C32.9147 344.364 33.0197 344.376 33.125 344.375C34.0303 344.375 34.8906 344.131 35.6274 343.704C35.9143 343.537 36.1233 343.264 36.2084 342.943C36.2936 342.623 36.248 342.281 36.0815 341.995C35.9151 341.708 35.6416 341.499 35.3211 341.414C35.0006 341.328 34.6594 341.374 34.3726 341.541C34.0069 341.753 33.5847 341.875 33.125 341.875C33.0197 341.874 32.9147 341.886 32.8125 341.912C32.7103 341.886 32.6053 341.874 32.5 341.875C31.1063 341.875 30 340.769 30 339.375L30 300L35 302.083V305V308.75H35.0977L35.0342 309.104L35.8008 309.922L36.2329 310L37.2339 309.497L37.3682 308.75H37.5V306.736L42.5 308.401L42.5 339.375C42.5 342.121 44.7537 344.375 47.5 344.375C47.6656 344.377 47.8301 344.347 47.9838 344.285C48.1375 344.223 48.2774 344.132 48.3954 344.015C48.5133 343.899 48.607 343.76 48.6709 343.607C48.7349 343.455 48.7678 343.291 48.7678 343.125C48.7678 342.959 48.7349 342.795 48.6709 342.643C48.607 342.49 48.5133 342.351 48.3954 342.235C48.2774 342.118 48.1375 342.027 47.9838 341.965C47.8301 341.903 47.6656 341.873 47.5 341.875C46.1063 341.875 45 340.769 45 339.375L45 309.102L50.0635 310.369L50.8154 311.172L51.25 311.25L52.0288 310.859L57.5 312.227L57.5 346.877V351.25H22.5V346.875L22.5 294.102ZM36.2329 312.5L35.2319 313.003L35.0342 314.104L35.8008 314.922L36.2329 315L37.2339 314.497L37.4316 313.396L36.6675 312.578L36.2329 312.5ZM51.25 313.75L50.249 314.253L50.0513 315.354L50.8154 316.172L51.25 316.25L52.251 315.747L52.4487 314.646L51.6846 313.828L51.25 313.75ZM36.2329 317.5L35.2319 318.003L35.0342 319.104L35.8008 319.922L36.2329 320L37.2339 319.497L37.4316 318.396L36.6675 317.578L36.2329 317.5ZM51.25 318.75L50.249 319.253L50.0513 320.354L50.8154 321.172L51.25 321.25L52.251 320.747L52.4487 319.646L51.6846 318.828L51.25 318.75ZM36.2329 322.5L35.2319 323.003L35.0342 324.104L35.8008 324.922L36.2329 325L37.2339 324.497L37.4316 323.396L36.6675 322.578L36.2329 322.5ZM51.25 323.75L50.249 324.253L50.0513 325.354L50.8154 326.172L51.25 326.25L52.251 325.747L52.4487 324.646L51.6846 323.828L51.25 323.75ZM36.2329 327.5L35.2319 328.003L35.0342 329.104L35.8008 329.922L36.2329 330L37.2339 329.497L37.4316 328.396L36.6675 327.578L36.2329 327.5ZM51.25 328.75L50.249 329.253L50.0513 330.354L50.8154 331.172L51.25 331.25L52.251 330.747L52.4487 329.646L51.6846 328.828L51.25 328.75ZM36.2329 332.5L35.2319 333.003L35.0342 334.104L35.8008 334.922L36.2329 335L37.2339 334.497L37.4316 333.396L36.6675 332.578L36.2329 332.5ZM51.25 333.75L50.249 334.253L50.0513 335.354L50.8154 336.172L51.25 336.25L52.251 335.747L52.4487 334.646L51.6846 333.828L51.25 333.75ZM36.2329 337.5L35.2319 338.003L35.0342 339.104L35.8008 339.922L36.2329 340L37.2339 339.497L37.4316 338.396L36.6675 337.578L36.2329 337.5ZM51.0571 338.728L50.0562 339.229L49.8584 340.332L50.6226 341.15L51.0571 341.228L52.0581 340.725L52.2559 339.624L51.4917 338.806L51.0571 338.728ZM18.4644 353.75H21.25H58.75H61.5356C60.611 354.959 60 356.465 60 358.125C60 359.772 60.5635 361.295 61.4746 362.5H61.084C60.9183 362.498 60.7539 362.528 60.6002 362.59C60.4465 362.652 60.3066 362.743 60.1886 362.86C60.0706 362.976 59.977 363.115 59.913 363.268C59.8491 363.42 59.8162 363.584 59.8162 363.75C59.8162 363.916 59.8491 364.08 59.913 364.232C59.977 364.385 60.0706 364.524 60.1886 364.64C60.3066 364.757 60.4465 364.848 60.6002 364.91C60.7539 364.972 60.9183 365.002 61.084 365H67.5V373.75H12.5L12.5 365H18.916C19.0817 365.002 19.2461 364.972 19.3998 364.91C19.5535 364.848 19.6934 364.757 19.8114 364.64C19.9294 364.524 20.023 364.385 20.087 364.232C20.1509 364.08 20.1838 363.916 20.1838 363.75C20.1838 363.584 20.1509 363.42 20.087 363.268C20.023 363.115 19.9294 362.976 19.8114 362.86C19.6934 362.743 19.5535 362.652 19.3998 362.59C19.2461 362.528 19.0817 362.498 18.916 362.5H18.5254C19.4365 361.295 20 359.772 20 358.125C20 356.465 19.389 354.959 18.4644 353.75ZM22.5 362.5L21.499 363.003L21.3013 364.104L22.0654 364.922L22.5 365L23.501 364.497L23.6987 363.396L22.9346 362.578L22.5 362.5ZM27.5 362.5L26.499 363.003L26.3013 364.104L27.0654 364.922L27.5 365L28.501 364.497L28.6987 363.396L27.9346 362.578L27.5 362.5ZM32.5 362.5L31.499 363.003L31.3013 364.104L32.0654 364.922L32.5 365L33.501 364.497L33.6987 363.396L32.9346 362.578L32.5 362.5ZM37.5 362.5L36.499 363.003L36.3013 364.104L37.0654 364.922L37.5 365L38.501 364.497L38.6987 363.396L37.9346 362.578L37.5 362.5ZM42.5 362.5L41.499 363.003L41.3013 364.104L42.0654 364.922L42.5 365L43.501 364.497L43.6987 363.396L42.9346 362.578L42.5 362.5ZM47.5 362.5L46.499 363.003L46.3013 364.104L47.0654 364.922L47.5 365L48.501 364.497L48.6987 363.396L47.9346 362.578L47.5 362.5ZM52.5 362.5L51.499 363.003L51.3013 364.104L52.0654 364.922L52.5 365L53.501 364.497L53.6987 363.396L52.9346 362.578L52.5 362.5ZM57.5 362.5L56.499 363.003L56.3013 364.104L57.0654 364.922L57.5 365L58.501 364.497L58.6987 363.396L57.9346 362.578L57.5 362.5Z"
      fill="white" />
    <path
      d="M238.818 291.252C239.137 291.27 239.438 291.409 239.657 291.641C239.877 291.873 240 292.18 240 292.5V346.875V351.25H246.25H246.833C246.999 351.248 247.164 351.278 247.317 351.34C247.471 351.402 247.611 351.493 247.729 351.61C247.847 351.726 247.941 351.865 248.004 352.018C248.068 352.17 248.101 352.334 248.101 352.5C248.101 352.666 248.068 352.83 248.004 352.982C247.941 353.135 247.847 353.274 247.729 353.39C247.611 353.507 247.471 353.598 247.317 353.66C247.164 353.722 246.999 353.752 246.833 353.75H246.25C244.267 353.75 242.5 355.637 242.5 358.125C242.5 360.613 244.267 362.5 246.25 362.5H248.75C249.082 362.5 249.399 362.632 249.634 362.866C249.868 363.101 250 363.418 250 363.75V375C250 375.332 249.868 375.649 249.634 375.884C249.399 376.118 249.082 376.25 248.75 376.25H191.25C190.918 376.25 190.601 376.118 190.366 375.884C190.132 375.649 190 375.332 190 375V363.75C190 363.418 190.132 363.101 190.366 362.866C190.601 362.632 190.918 362.5 191.25 362.5H193.75C195.733 362.5 197.5 360.613 197.5 358.125C197.5 355.637 195.733 353.75 193.75 353.75H193.167C193.001 353.752 192.836 353.722 192.683 353.66C192.529 353.598 192.389 353.507 192.271 353.39C192.153 353.274 192.059 353.135 191.996 352.982C191.932 352.83 191.899 352.666 191.899 352.5C191.899 352.334 191.932 352.17 191.996 352.018C192.059 351.865 192.153 351.726 192.271 351.61C192.389 351.493 192.529 351.402 192.683 351.34C192.836 351.278 193.001 351.248 193.167 351.25H193.75H200V346.877V311.25C200 310.971 200.093 310.7 200.265 310.48C200.436 310.26 200.677 310.104 200.947 310.037L208.447 308.162L215.757 306.335C215.848 306.297 215.943 306.269 216.04 306.252L222.5 304.099V301.25C222.5 301.003 222.573 300.762 222.71 300.556C222.846 300.351 223.041 300.19 223.269 300.095L230 297.292V294.375C230 294.096 230.093 293.825 230.265 293.605C230.436 293.385 230.677 293.229 230.947 293.162L238.447 291.287C238.569 291.257 238.694 291.245 238.818 291.252ZM237.5 294.102L232.5 295.352V298.125V339.375C232.5 342.121 230.246 344.375 227.5 344.375C227.395 344.376 227.29 344.364 227.188 344.338C227.085 344.364 226.98 344.376 226.875 344.375C225.97 344.375 225.109 344.131 224.373 343.704C224.086 343.537 223.877 343.264 223.792 342.943C223.706 342.623 223.752 342.281 223.918 341.995C224.085 341.708 224.358 341.499 224.679 341.414C224.999 341.328 225.341 341.374 225.627 341.541C225.993 341.753 226.415 341.875 226.875 341.875C226.98 341.874 227.085 341.886 227.188 341.912C227.29 341.886 227.395 341.874 227.5 341.875C228.894 341.875 230 340.769 230 339.375V300L225 302.083V305V308.75H224.902L224.966 309.104L224.199 309.922L223.767 310L222.766 309.497L222.632 308.75H222.5V306.736L217.5 308.401V339.375C217.5 342.121 215.246 344.375 212.5 344.375C212.334 344.377 212.17 344.347 212.016 344.285C211.862 344.223 211.723 344.132 211.605 344.015C211.487 343.899 211.393 343.76 211.329 343.607C211.265 343.455 211.232 343.291 211.232 343.125C211.232 342.959 211.265 342.795 211.329 342.643C211.393 342.49 211.487 342.351 211.605 342.235C211.723 342.118 211.862 342.027 212.016 341.965C212.17 341.903 212.334 341.873 212.5 341.875C213.894 341.875 215 340.769 215 339.375V309.102L209.937 310.369L209.185 311.172L208.75 311.25L207.971 310.859L202.5 312.227V346.877V351.25H237.5V346.875V294.102ZM223.767 312.5L224.768 313.003L224.966 314.104L224.199 314.922L223.767 315L222.766 314.497L222.568 313.396L223.333 312.578L223.767 312.5ZM208.75 313.75L209.751 314.253L209.949 315.354L209.185 316.172L208.75 316.25L207.749 315.747L207.551 314.646L208.315 313.828L208.75 313.75ZM223.767 317.5L224.768 318.003L224.966 319.104L224.199 319.922L223.767 320L222.766 319.497L222.568 318.396L223.333 317.578L223.767 317.5ZM208.75 318.75L209.751 319.253L209.949 320.354L209.185 321.172L208.75 321.25L207.749 320.747L207.551 319.646L208.315 318.828L208.75 318.75ZM223.767 322.5L224.768 323.003L224.966 324.104L224.199 324.922L223.767 325L222.766 324.497L222.568 323.396L223.333 322.578L223.767 322.5ZM208.75 323.75L209.751 324.253L209.949 325.354L209.185 326.172L208.75 326.25L207.749 325.747L207.551 324.646L208.315 323.828L208.75 323.75ZM223.767 327.5L224.768 328.003L224.966 329.104L224.199 329.922L223.767 330L222.766 329.497L222.568 328.396L223.333 327.578L223.767 327.5ZM208.75 328.75L209.751 329.253L209.949 330.354L209.185 331.172L208.75 331.25L207.749 330.747L207.551 329.646L208.315 328.828L208.75 328.75ZM223.767 332.5L224.768 333.003L224.966 334.104L224.199 334.922L223.767 335L222.766 334.497L222.568 333.396L223.333 332.578L223.767 332.5ZM208.75 333.75L209.751 334.253L209.949 335.354L209.185 336.172L208.75 336.25L207.749 335.747L207.551 334.646L208.315 333.828L208.75 333.75ZM223.767 337.5L224.768 338.003L224.966 339.104L224.199 339.922L223.767 340L222.766 339.497L222.568 338.396L223.333 337.578L223.767 337.5ZM208.943 338.728L209.944 339.229L210.142 340.332L209.377 341.15L208.943 341.228L207.942 340.725L207.744 339.624L208.508 338.806L208.943 338.728ZM241.536 353.75H238.75H201.25H198.464C199.389 354.959 200 356.465 200 358.125C200 359.772 199.437 361.295 198.525 362.5H198.916C199.082 362.498 199.246 362.528 199.4 362.59C199.554 362.652 199.693 362.743 199.811 362.86C199.929 362.976 200.023 363.115 200.087 363.268C200.151 363.42 200.184 363.584 200.184 363.75C200.184 363.916 200.151 364.08 200.087 364.232C200.023 364.385 199.929 364.524 199.811 364.64C199.693 364.757 199.554 364.848 199.4 364.91C199.246 364.972 199.082 365.002 198.916 365H192.5V373.75H247.5V365H241.084C240.918 365.002 240.754 364.972 240.6 364.91C240.446 364.848 240.307 364.757 240.189 364.64C240.071 364.524 239.977 364.385 239.913 364.232C239.849 364.08 239.816 363.916 239.816 363.75C239.816 363.584 239.849 363.42 239.913 363.268C239.977 363.115 240.071 362.976 240.189 362.86C240.307 362.743 240.446 362.652 240.6 362.59C240.754 362.528 240.918 362.498 241.084 362.5H241.475C240.563 361.295 240 359.772 240 358.125C240 356.465 240.611 354.959 241.536 353.75ZM237.5 362.5L238.501 363.003L238.699 364.104L237.935 364.922L237.5 365L236.499 364.497L236.301 363.396L237.065 362.578L237.5 362.5ZM232.5 362.5L233.501 363.003L233.699 364.104L232.935 364.922L232.5 365L231.499 364.497L231.301 363.396L232.065 362.578L232.5 362.5ZM227.5 362.5L228.501 363.003L228.699 364.104L227.935 364.922L227.5 365L226.499 364.497L226.301 363.396L227.065 362.578L227.5 362.5ZM222.5 362.5L223.501 363.003L223.699 364.104L222.935 364.922L222.5 365L221.499 364.497L221.301 363.396L222.065 362.578L222.5 362.5ZM217.5 362.5L218.501 363.003L218.699 364.104L217.935 364.922L217.5 365L216.499 364.497L216.301 363.396L217.065 362.578L217.5 362.5ZM212.5 362.5L213.501 363.003L213.699 364.104L212.935 364.922L212.5 365L211.499 364.497L211.301 363.396L212.065 362.578L212.5 362.5ZM207.5 362.5L208.501 363.003L208.699 364.104L207.935 364.922L207.5 365L206.499 364.497L206.301 363.396L207.065 362.578L207.5 362.5ZM202.5 362.5L203.501 363.003L203.699 364.104L202.935 364.922L202.5 365L201.499 364.497L201.301 363.396L202.065 362.578L202.5 362.5Z"
      fill="white" />
    <path d="M40 106L40 268" stroke="white" stroke-width="3" stroke-linejoin="round" stroke-dasharray="6 6" />
    <path d="M220 106L220 268" stroke="white" stroke-width="3" stroke-linejoin="round" stroke-dasharray="6 6" />
    <path d="M90 39L170 39" stroke="white" stroke-width="3" stroke-linejoin="round" stroke-dasharray="6 6" />
    <path d="M90 334H170" stroke="white" stroke-width="3" stroke-linejoin="round" stroke-dasharray="6 6" />
  </g>
  <defs>
    <clipPath id="clip0_11_67">
      <rect width="260" height="373" fill="white" />
    </clipPath>
    <clipPath id="clip1_11_67">
      <rect width="100" height="100" fill="white" transform="translate(80 118)" />
    </clipPath>
  </defs>
</svg>