<svg width="50" height="50" viewBox="0 0 50 50" fill="none" xmlns="http://www.w3.org/2000/svg">
<g id="Frame">
<path id="Vector" d="M37.5049 4.98779L37.0032 5.23804L36.9055 5.7898L37.2876 6.19873L37.5049 6.23779L38.0054 5.98633L38.1042 5.43579L37.7209 5.02686L37.5049 4.98779ZM40 5L39.4995 5.25146L39.4006 5.802L39.7827 6.21094L40 6.25L40.5005 5.99854L40.5994 5.448L40.2173 5.03906L40 5ZM35.0562 5.46753L34.5557 5.71899L34.4568 6.26953L34.8401 6.67969L35.0562 6.71753L35.5566 6.46729L35.6555 5.91553L35.2734 5.50659L35.0562 5.46753ZM32.7637 6.45264L32.2632 6.70288L32.1643 7.25464L32.5476 7.66357L32.7637 7.70264L33.2654 7.45117L33.363 6.89941L32.981 6.49048L32.7637 6.45264ZM38.6218 7.5C33.4034 7.5 28.75 11.6778 28.75 16.875V20H26.7749L26.8457 19.6057L26.4624 19.1968L26.2463 19.1577L25.7446 19.408L25.647 19.9597L25.6848 20H17.5C16.0549 20 14.6607 20.3016 13.5327 20.9668L13.2495 20.6641L13.0322 20.625L12.5317 20.8765L12.4329 21.427L12.6331 21.6406C12.0974 22.1508 11.6876 22.7895 11.4587 23.5364L11.2122 23.2715L10.9949 23.2336L10.4944 23.4839L10.3955 24.0356L10.7776 24.4446L10.9949 24.4836L11.2854 24.3384C11.2634 24.5256 11.25 24.7171 11.25 24.9146V25.7983V30.2173V39.303C11.2497 39.3565 11.2563 39.4098 11.2695 39.4617C11.1211 39.5774 10.9825 39.7017 10.8606 39.8389C10.3496 40.4137 10.0863 41.1383 10.0256 41.875H7.5C7.41718 41.8738 7.33495 41.8891 7.2581 41.92C7.18124 41.9509 7.11129 41.9968 7.05231 42.0549C6.99333 42.1131 6.9465 42.1824 6.91453 42.2588C6.88256 42.3352 6.8661 42.4172 6.8661 42.5C6.8661 42.5828 6.88256 42.6648 6.91453 42.7412C6.9465 42.8177 6.99333 42.887 7.05231 42.9451C7.11129 43.0033 7.18124 43.0491 7.2581 43.08C7.33495 43.1109 7.41718 43.1262 7.5 43.125H10.1318C10.2644 43.6372 10.4962 44.1262 10.8606 44.5361C11.4439 45.1923 12.3438 45.625 13.4375 45.625C14.5312 45.625 15.4311 45.1923 16.0144 44.5361C16.3779 44.1272 16.5834 43.6358 16.7163 43.125H21.25V45C21.2488 45.0828 21.2641 45.1651 21.295 45.2419C21.3259 45.3188 21.3717 45.3887 21.4299 45.4477C21.4881 45.5067 21.5573 45.5535 21.6338 45.5855C21.7102 45.6174 21.7922 45.6339 21.875 45.6339C21.9578 45.6339 22.0398 45.6174 22.1162 45.5855C22.1927 45.5535 22.2619 45.5067 22.3201 45.4477C22.3783 45.3887 22.4241 45.3188 22.455 45.2419C22.4859 45.1651 22.5012 45.0828 22.5 45V43.125H26.875V45C26.8738 45.0828 26.8891 45.1651 26.92 45.2419C26.9509 45.3188 26.9967 45.3887 27.0549 45.4477C27.1131 45.5067 27.1823 45.5535 27.2588 45.5855C27.3352 45.6174 27.4172 45.6339 27.5 45.6339C27.5828 45.6339 27.6648 45.6174 27.7412 45.5855C27.8177 45.5535 27.8869 45.5067 27.9451 45.4477C28.0033 45.3887 28.0491 45.3188 28.08 45.2419C28.1109 45.1651 28.1262 45.0828 28.125 45V43.125H32.0337C32.1666 43.6358 32.3721 44.1272 32.7356 44.5361C33.3189 45.1923 34.2188 45.625 35.3125 45.625C36.4062 45.625 37.3061 45.1923 37.8894 44.5361C38.2538 44.1262 38.4856 43.6372 38.6182 43.125H41.25C41.3328 43.1262 41.415 43.1109 41.4919 43.08C41.5688 43.0491 41.6387 43.0033 41.6977 42.9451C41.7567 42.887 41.8035 42.8177 41.8355 42.7412C41.8674 42.6648 41.8839 42.5828 41.8839 42.5C41.8839 42.4172 41.8674 42.3352 41.8355 42.2588C41.8035 42.1824 41.7567 42.1131 41.6977 42.0549C41.6387 41.9968 41.5688 41.9509 41.4919 41.92C41.415 41.8891 41.3328 41.8738 41.25 41.875H38.7244C38.6637 41.1383 38.4004 40.4137 37.8894 39.8389C37.7865 39.7231 37.6707 39.6173 37.5488 39.5166C37.5616 39.4651 37.5677 39.4122 37.5671 39.3591V30.2173V24.9146V21.3794V18.7293V16.6821L40.1111 20.3552C40.1685 20.4384 40.2453 20.5064 40.3348 20.5534C40.4243 20.6004 40.5239 20.6249 40.625 20.625H43.125C43.2908 20.625 43.4497 20.5591 43.5669 20.4419C43.6841 20.3247 43.75 20.1658 43.75 20V10.8337L45.5005 8.49976C45.5701 8.40686 45.6124 8.29643 45.6227 8.18083C45.6331 8.06523 45.6111 7.94904 45.5591 7.84525C45.5072 7.74147 45.4273 7.6542 45.3286 7.59323C45.2298 7.53225 45.1161 7.49997 45 7.5H38.6218ZM30.7373 7.90649L30.2368 8.15796L30.1379 8.70972L30.5212 9.11865L30.7373 9.15649L31.239 8.90625L31.3379 8.35449L30.9546 7.94556L30.7373 7.90649ZM38.6218 8.75H43.75L42.6245 10.2502C42.5436 10.3584 42.4999 10.4899 42.5 10.625V19.375H40.9521L37.4561 14.3262C37.3802 14.2166 37.2713 14.1342 37.1453 14.0909C37.0192 14.0476 36.8827 14.0457 36.7555 14.0855C36.6283 14.1253 36.5172 14.2047 36.4384 14.3121C36.3595 14.4196 36.317 14.5494 36.3171 14.6826V18.7293V21.3794V24.9146V30.2173V38.8855C36.0051 38.8002 35.6703 38.75 35.3125 38.75C34.5217 38.75 33.834 38.9785 33.2922 39.3518L31.864 31.759C31.837 31.616 31.7608 31.4868 31.6487 31.3939C31.5366 31.3009 31.3956 31.25 31.25 31.25H27.605C27.5375 31.2388 27.4686 31.2388 27.4011 31.25H21.9714C21.9363 31.2441 21.9008 31.2413 21.8652 31.2415C21.835 31.2421 21.8048 31.245 21.7749 31.25H18.125C17.9847 31.2499 17.8484 31.2971 17.7381 31.3839C17.6278 31.4707 17.55 31.5921 17.5171 31.7285L15.6433 39.4922C15.0772 39.0365 14.3224 38.75 13.4375 38.75C13.1052 38.75 12.7931 38.7944 12.5 38.8684V30.2173V25.7983V24.9146C12.5 23.6396 13.032 22.7994 13.927 22.1887C14.822 21.578 16.1122 21.25 17.5 21.25H29.375C29.5408 21.25 29.6997 21.1841 29.8169 21.0669C29.9341 20.9497 30 20.7908 30 20.625V16.875C30 12.4322 34.074 8.75 38.6218 8.75ZM29.0723 9.76441L28.5706 10.0146L28.4729 10.5664L28.855 10.9753L29.0723 11.0144L29.5728 10.7629L29.6716 10.2124L29.2883 9.80347L29.0723 9.76441ZM40.3125 11.875C40.0639 11.875 39.8254 11.9738 39.6496 12.1496C39.4738 12.3254 39.375 12.5639 39.375 12.8125C39.375 13.0611 39.4738 13.2996 39.6496 13.4754C39.8254 13.6512 40.0639 13.75 40.3125 13.75C40.5611 13.75 40.7996 13.6512 40.9754 13.4754C41.1512 13.2996 41.25 13.0611 41.25 12.8125C41.25 12.5639 41.1512 12.3254 40.9754 12.1496C40.7996 11.9738 40.5611 11.875 40.3125 11.875ZM27.782 11.9019L27.2815 12.1533L27.1826 12.7039L27.5659 13.1128L27.782 13.1519L28.2825 12.9016L28.3813 12.3499L27.9993 11.9409L27.782 11.9019ZM26.8579 14.2212L26.3574 14.4727L26.2585 15.0232L26.6406 15.4334L26.8579 15.4712L27.3584 15.2209L27.4573 14.6692L27.0752 14.2603L26.8579 14.2212ZM26.3354 16.6626L25.835 16.9128L25.7361 17.4646L26.1182 17.8735L26.3354 17.9126L26.8359 17.6611L26.9348 17.1106L26.5515 16.7017L26.3354 16.6626ZM10.5334 20.6287L10.0317 20.8789L9.93408 21.4307L10.3162 21.8396L10.5334 21.8787L11.0339 21.6272L11.1328 21.0767L10.7495 20.6677L10.5334 20.6287ZM8.12378 21.2097L7.62329 21.46L7.52441 22.0117L7.90649 22.4207L8.12378 22.4597L8.62427 22.2083L8.72314 21.6577L8.34106 21.2488L8.12378 21.2097ZM6.19995 22.771L5.69946 23.0225L5.60059 23.573L5.98267 23.9819L6.19995 24.021L6.70044 23.7708L6.79932 23.219L6.41724 22.8101L6.19995 22.771ZM8.93066 24.5569L8.43018 24.8084L8.3313 25.3601L8.71338 25.769L8.93066 25.8069L9.43115 25.5566L9.53003 25.0049L9.14795 24.596L8.93066 24.5569ZM5.13672 25.0098L4.63623 25.2612L4.53735 25.8118L4.92065 26.2207L5.13672 26.2598L5.63721 26.0095L5.73608 25.4578L5.354 25.0488L5.13672 25.0098ZM8.125 26.875L7.62451 27.1265L7.52563 27.677L7.90771 28.0859L8.125 28.125L8.62549 27.8735L8.72437 27.323L8.34229 26.9141L8.125 26.875ZM5 27.5L4.49951 27.7515L4.40063 28.302L4.78271 28.7109L5 28.75L5.50049 28.4985L5.59937 27.948L5.21729 27.5391L5 27.5ZM8.125 29.375L7.62451 29.6265L7.52563 30.177L7.90771 30.5859L8.125 30.625L8.62549 30.3735L8.72437 29.823L8.34229 29.4141L8.125 29.375ZM5 30L4.49951 30.2515L4.40063 30.802L4.78271 31.2109L5 31.25L5.50049 30.9985L5.59937 30.448L5.21729 30.0391L5 30ZM8.125 31.875L7.62451 32.1265L7.52563 32.677L7.90771 33.0859L8.125 33.125L8.62549 32.8735L8.72437 32.323L8.34229 31.9141L8.125 31.875ZM18.6169 32.5H21.25V35.52C21.2388 35.5875 21.2388 35.6564 21.25 35.7239V41.875H16.8225C16.7913 41.5012 16.7143 41.1293 16.5796 40.7788C16.6239 40.7121 16.655 40.6375 16.6711 40.5591L18.6169 32.5ZM22.5 32.5H26.875V35H22.5V32.5ZM28.125 32.5H30.7312L32.2253 40.4431C32.2341 40.4893 32.248 40.5343 32.2668 40.5774C32.0773 40.9863 31.9649 41.4272 31.9275 41.875H28.125V39.48C28.1362 39.4125 28.1362 39.3436 28.125 39.2761V35.73C28.1362 35.6625 28.1362 35.5936 28.125 35.5261V32.5ZM22.5 36.25H26.875V38.75H22.5V36.25ZM13.4375 40C14.2187 40 14.7251 40.2705 15.0793 40.669C15.4336 41.0674 15.625 41.6233 15.625 42.1875C15.625 42.7517 15.4336 43.3076 15.0793 43.7061C14.7251 44.1045 14.2187 44.375 13.4375 44.375C12.6563 44.375 12.1499 44.1045 11.7957 43.7061C11.4414 43.3076 11.25 42.7517 11.25 42.1875C11.25 41.6233 11.4414 41.0674 11.7957 40.669C12.1499 40.2705 12.6563 40 13.4375 40ZM22.5 40H26.875V41.875H22.5V40ZM35.3125 40C36.0937 40 36.6001 40.2705 36.9543 40.669C37.3086 41.0674 37.5 41.6233 37.5 42.1875C37.5 42.7517 37.3086 43.3076 36.9543 43.7061C36.6001 44.1045 36.0937 44.375 35.3125 44.375C34.5313 44.375 34.0249 44.1045 33.6707 43.7061C33.3164 43.3076 33.125 42.7517 33.125 42.1875C33.125 41.6233 33.3164 41.0674 33.6707 40.669C34.0249 40.2705 34.5313 40 35.3125 40ZM5 41.875C4.83424 41.875 4.67527 41.9409 4.55806 42.0581C4.44085 42.1753 4.375 42.3342 4.375 42.5C4.375 42.6658 4.44085 42.8247 4.55806 42.9419C4.67527 43.0592 4.83424 43.125 5 43.125C5.16576 43.125 5.32473 43.0592 5.44194 42.9419C5.55915 42.8247 5.625 42.6658 5.625 42.5C5.625 42.3342 5.55915 42.1753 5.44194 42.0581C5.32473 41.9409 5.16576 41.875 5 41.875ZM43.75 41.875C43.5842 41.875 43.4253 41.9409 43.3081 42.0581C43.1908 42.1753 43.125 42.3342 43.125 42.5C43.125 42.6658 43.1908 42.8247 43.3081 42.9419C43.4253 43.0592 43.5842 43.125 43.75 43.125C43.9158 43.125 44.0747 43.0592 44.1919 42.9419C44.3092 42.8247 44.375 42.6658 44.375 42.5C44.375 42.3342 44.3092 42.1753 44.1919 42.0581C44.0747 41.9409 43.9158 41.875 43.75 41.875Z" fill="black"/>
</g>
</svg>
